<?xml version="1.0" encoding="UTF-8" standalone="no"?>
<!-- Created with Inkscape (http://www.inkscape.org/) -->

<svg
   xmlns:dc="http://purl.org/dc/elements/1.1/"
   xmlns:cc="http://creativecommons.org/ns#"
   xmlns:rdf="http://www.w3.org/1999/02/22-rdf-syntax-ns#"
   xmlns:svg="http://www.w3.org/2000/svg"
   xmlns="http://www.w3.org/2000/svg"
   xmlns:sodipodi="http://sodipodi.sourceforge.net/DTD/sodipodi-0.dtd"
   xmlns:inkscape="http://www.inkscape.org/namespaces/inkscape"
   width="744.09448819"
   height="1052.3622047"
   id="svg3828"
   version="1.1"
   inkscape:version="0.48.4 r9939"
   sodipodi:docname="New document 47">
  <defs
     id="defs3830" />
  <sodipodi:namedview
     id="base"
     pagecolor="#ffffff"
     bordercolor="#666666"
     borderopacity="1.0"
     inkscape:pageopacity="0.0"
     inkscape:pageshadow="2"
     inkscape:zoom="0.35"
     inkscape:cx="375"
     inkscape:cy="520"
     inkscape:document-units="px"
     inkscape:current-layer="layer1"
     showgrid="false"
     inkscape:window-width="1050"
     inkscape:window-height="963"
     inkscape:window-x="432"
     inkscape:window-y="93"
     inkscape:window-maximized="0" />
  <metadata
     id="metadata3833">
    <rdf:RDF>
      <cc:Work
         rdf:about="">
        <dc:format>image/svg+xml</dc:format>
        <dc:type
           rdf:resource="http://purl.org/dc/dcmitype/StillImage" />
        <dc:title></dc:title>
      </cc:Work>
    </rdf:RDF>
  </metadata>
  <g
     inkscape:label="Layer 1"
     inkscape:groupmode="layer"
     id="layer1">
    <path
       style="fill:#0066ff"
       d="m 251.45996,744.80738 c -5.55173,-9.9212 -8.19418,-24.56786 -6.21395,-34.44335 2.32318,-11.58622 -1.64881,-25.54146 -12.19631,-42.85041 -36.66904,-60.17576 -44.5722,-148.25967 -19.37896,-215.98698 43.8384,-117.85123 147.68601,-168.37317 235.34077,-114.49351 105.77315,65.01658 136.91489,224.92582 65.83165,338.03804 -8.65179,13.7672 -11.50304,26.31227 -9.09694,40.02448 2.51627,14.34012 -0.004,23.94588 -8.93549,34.06373 -10.78801,12.22028 -14.41061,12.77161 -27.27879,4.15139 -12.12826,-8.12447 -19.90711,-8.16401 -42.58614,-0.21596 -18.62107,6.52576 -41.19718,7.905 -68.6394,4.19329 -53.02069,-7.17131 -68.44633,-7.29275 -84.22817,-0.66311 -9.65495,4.05588 -15.42181,1.04281 -22.61827,-11.81755 z M 423.37198,711.49056 C 460.12159,695.26117 482.263,673.1654 500.22974,634.79111 519.04759,594.5991 525.49089,528.41164 515.2146,480.86201 506.50578,440.5653 471.38992,390.41476 438.92301,371.90667 409.69546,355.2451 346.92141,353.19082 318.73817,367.97359 247.0837,405.558 210.45822,516.2665 240.29216,605.09353 c 13.48672,40.15505 23.80408,56.85334 50.90668,82.3907 38.23966,36.03125 85.5051,44.61602 132.17314,24.00633 z M 365.55395,545.25952 c -1.71613,-5.59786 -2.31382,-37.21468 -1.32815,-70.25962 1.49481,-50.11457 3.55583,-60.50329 12.42407,-62.62298 9.41539,-2.25042 10.632,4.48394 10.632,58.85279 l 0,61.39402 54.67886,0 c 44.55312,0 54.67886,2.11239 54.67886,11.40682 0,15.81943 -126.24972,17.00308 -131.08564,1.22897 z M 127.06191,690.41806 c -9.80289,-26.14063 -21.23933,-65.95483 -25.41419,-88.476 -8.238824,-44.44348 -4.812041,-127.29646 6.34402,-153.38842 8.93794,-20.90406 21.92228,-14.62194 18.0467,8.73147 -1.67074,10.06751 -2.95726,50.81396 -2.85892,90.5477 0.16162,65.22534 2.07683,77.30539 19.71799,124.35503 18.32818,48.88194 20.2259,65.75863 7.39447,65.75863 -2.97362,0 -13.42712,-21.38778 -23.23007,-47.52841 z m 464.52065,41.49101 c -1.63958,-3.32053 5.7174,-28.01955 16.34886,-54.8868 18.70867,-47.27959 19.32679,-51.98003 19.2334,-146.26827 -0.0807,-81.72187 1.34449,-97.07149 8.84674,-95.26306 21.22032,5.11519 25.35981,133.2921 6.56049,203.14237 -19.33006,71.8225 -41.53017,112.43344 -50.98949,93.27576 z M 174.72722,675.76684 c -27.01851,-54.93859 -38.87587,-152.47724 -24.3497,-200.30033 11.92053,-39.24455 19.5336,-16.37806 20.39035,61.24429 0.65312,59.16397 3.60887,83.25722 13.4925,109.98112 15.21032,41.12629 16.4892,48.67602 8.78951,51.88856 -3.24149,1.35247 -11.4867,-8.91367 -18.32266,-22.81364 z m 379.46448,16.2192 c -2.15562,-4.36569 -0.93531,-12.43814 2.71183,-17.93866 14.68127,-22.14224 24.98945,-85.97062 24.00748,-148.65451 -0.63167,-40.32159 1.43725,-65.28465 5.55299,-67.00191 25.92587,-10.817 25.75995,126.79387 -0.23875,197.80665 -15.589,42.58013 -24.02613,52.00619 -32.0338,35.78843 z M 534.04886,383.07273 c -11.169,-18.80209 -32.56509,-43.91581 -47.54685,-55.80825 -25.30562,-20.08756 -26.37241,-22.2036 -15.02582,-29.8045 48.93612,-32.78152 112.08049,34.62236 90.74255,96.86382 l -7.86258,22.93455 -20.3073,-34.18562 z m -343.56841,15.84946 c -15.20461,-49.59518 18.30096,-109.74021 61.01559,-109.52752 21.37312,0.10647 45.29682,10.60979 38.40303,16.86043 -1.57397,1.42714 -14.66031,12.5002 -29.0807,24.60686 -14.4204,12.10667 -33.558,35.00639 -42.52802,50.88818 -18.1329,32.10525 -22.42014,34.75255 -27.8099,17.17205 z"
       id="path3995"
       inkscape:connector-curvature="0" />
  </g>
</svg>
