<?xml version="1.0" encoding="UTF-8" standalone="no"?>
<!-- Created with Inkscape (http://www.inkscape.org/) -->

<svg
   xmlns:dc="http://purl.org/dc/elements/1.1/"
   xmlns:cc="http://creativecommons.org/ns#"
   xmlns:rdf="http://www.w3.org/1999/02/22-rdf-syntax-ns#"
   xmlns:svg="http://www.w3.org/2000/svg"
   xmlns="http://www.w3.org/2000/svg"
   xmlns:sodipodi="http://sodipodi.sourceforge.net/DTD/sodipodi-0.dtd"
   xmlns:inkscape="http://www.inkscape.org/namespaces/inkscape"
   width="48px"
   height="48px"
   id="svg3666"
   version="1.1"
   inkscape:version="0.48.4 r9939"
   sodipodi:docname="practice.svg"
   inkscape:export-filename="/home/royer/images/Workspace/practice.png"
   inkscape:export-xdpi="60"
   inkscape:export-ydpi="60">
  <defs
     id="defs3668" />
  <sodipodi:namedview
     id="base"
     pagecolor="#ffffff"
     bordercolor="#666666"
     borderopacity="1.0"
     inkscape:pageopacity="0.0"
     inkscape:pageshadow="2"
     inkscape:zoom="7.5833333"
     inkscape:cx="0.7912088"
     inkscape:cy="24"
     inkscape:current-layer="layer1"
     showgrid="true"
     inkscape:grid-bbox="true"
     inkscape:document-units="px"
     inkscape:window-width="1340"
     inkscape:window-height="892"
     inkscape:window-x="318"
     inkscape:window-y="105"
     inkscape:window-maximized="0" />
  <metadata
     id="metadata3671">
    <rdf:RDF>
      <cc:Work
         rdf:about="">
        <dc:format>image/svg+xml</dc:format>
        <dc:type
           rdf:resource="http://purl.org/dc/dcmitype/StillImage" />
        <dc:title></dc:title>
      </cc:Work>
    </rdf:RDF>
  </metadata>
  <g
     id="layer1"
     inkscape:label="Layer 1"
     inkscape:groupmode="layer">
    <path
       style="fill:#33b5e5;fill-opacity:1"
       d="M 13.795716,40.06193 C 13.335794,39.377881 13.116888,38.368024 13.280938,37.687132 13.47339,36.888283 13.144344,35.926099 12.270562,34.732683 9.2328072,30.583689 8.5780892,24.510482 10.665159,19.840826 14.296846,11.715229 22.899845,8.2318459 30.161386,11.946738 c 8.762516,4.482755 11.342378,15.508171 5.453663,23.307023 -0.716739,0.94922 -0.952941,1.814176 -0.753617,2.759606 0.208454,0.988719 -3.32e-4,1.651019 -0.740238,2.34862 -0.893708,0.842566 -1.193812,0.880578 -2.259845,0.286229 -1.004736,-0.560162 -1.649155,-0.562888 -3.527941,-0.01488 -1.542617,0.449938 -3.412881,0.545036 -5.686261,0.28912 -4.392372,-0.494446 -5.670272,-0.502818 -6.977677,-0.04572 -0.799844,0.279646 -1.277583,0.0719 -1.873754,-0.814794 z m 14.241625,-2.297131 c 3.044431,-1.118981 4.878683,-2.642439 6.367093,-5.288264 1.558918,-2.771159 2.092699,-7.334647 1.241384,-10.613096 -0.721459,-2.778375 -3.63055,-6.236149 -6.320189,-7.512243 -2.421286,-1.148781 -7.621646,-1.29042 -9.956417,-0.271178 -5.93604,2.591366 -8.970184,10.224489 -6.498668,16.348928 1.117276,2.768608 1.971992,3.91992 4.21724,5.68067 3.167871,2.484279 7.083461,3.07618 10.949557,1.655183 z m -4.78979,-11.461285 c -0.14217,-0.385961 -0.191685,-2.565876 -0.110032,-4.844253 0.123829,-3.455297 0.294577,-4.171578 1.029245,-4.317727 0.779995,-0.15516 0.880779,0.309161 0.880779,4.057778 l 0,4.232994 4.529737,0 c 3.690894,0 4.529736,0.145641 4.529736,0.786474 0,1.090716 -10.458849,1.172327 -10.859466,0.08474 z M 3.4902674,36.311897 C 2.6781681,34.509556 1.7307466,31.764448 1.3848882,30.211659 0.70236494,27.147375 0.98624749,21.434831 1.9104451,19.635845 2.650886,18.19455 3.7265414,18.627691 3.4054779,20.237861 c -0.138407,0.694134 -0.2449857,3.503518 -0.2368382,6.243076 0.013406,4.497156 0.172047,5.33005 1.6334846,8.574023 1.5183547,3.37031 1.6755665,4.533923 0.6125783,4.533923 -0.2463438,0 -1.1123357,-1.474643 -1.9244352,-3.276986 z m 38.4820666,2.86072 c -0.13583,-0.228945 0.473642,-1.93189 1.354381,-3.784332 1.549873,-3.259831 1.60108,-3.583913 1.593342,-10.084894 -0.0067,-5.634556 0.111386,-6.69288 0.732887,-6.568192 1.757946,0.352682 2.100871,9.190215 0.543489,14.006247 -1.60135,4.952012 -3.440465,7.752053 -4.224099,6.431171 z M 7.4389792,35.301725 C 5.2006967,31.513823 4.2184034,24.788735 5.4217897,21.491432 6.4093159,18.785601 7.0400006,20.3622 7.110978,25.714098 c 0.054111,4.079234 0.2989681,5.740414 1.1177508,7.582971 1.2600631,2.835572 1.3660087,3.356112 0.7281453,3.577611 -0.2685329,0.09325 -0.9515872,-0.614581 -1.5178949,-1.572955 z m 31.4357998,1.118279 c -0.178575,-0.301003 -0.07749,-0.857584 0.224654,-1.236832 1.216236,-1.526663 2.07019,-5.927498 1.988841,-10.24942 -0.05232,-2.780092 0.119069,-4.501243 0.460023,-4.619645 2.147766,-0.745808 2.134023,8.742175 -0.01978,13.63836 -1.291431,2.935814 -1.990385,3.585719 -2.653761,2.467537 z M 37.206095,15.121071 C 36.280825,13.824706 34.508319,12.093166 33.267194,11.273208 31.170812,9.8882114 31.082437,9.7423171 32.022416,9.2182486 36.07641,6.9580302 41.30745,11.605391 39.539758,15.896809 l -0.651354,1.58129 -1.682309,-2.357028 z M 8.7440159,16.213857 C 7.4844281,12.794374 10.260118,8.647499 13.798702,8.6621621 c 1.770605,0.00728 3.752507,0.7315243 3.181405,1.1624934 -0.130397,0.098402 -1.214495,0.8618625 -2.409116,1.6965925 -1.194624,0.83473 -2.78003,2.413615 -3.523131,3.508635 -1.5021768,2.213588 -1.8573432,2.396116 -2.3038441,1.183974 z"
       id="path3995"
       inkscape:connector-curvature="0" />
  </g>
</svg>
